# xmcd
#
# Track frame offsets:
#	150
#	14427
#	29580
#	44073
#	59432
#	73486
#	91566
#	105287
#	121359
#	138618
#	155086
#	170474
#	187247
#	207014
#	222569
#	239616
#	257516
#	270435
#	287120
#
# Disc length: 4001 seconds
#
# Revision: 0
# Processed by: cddbd v1.5.1PL0 Copyright (c) Steve Scherf et al.
# Submitted via: dBpowerAMP V4.0
#
DISCID=290f9f13
DTITLE=Darryl Worley - Have You Forgotten
DYEAR=1900
DGENRE=
TTITLE0=A Good Day To Run
TTITLE1=Back Where I Belong
TTITLE2=Callin' Caroline
TTITLE3=Family Tree
TTITLE4=Hard Rain Don't Last
TTITLE5=Have You Forgotten
TTITLE6=I Let Her Lie
TTITLE7=I Miss My Friend
TTITLE8=If I Could Just Be Me
TTITLE9=Is It Just Us
TTITLE10=Opportunity Of A LIfetime
TTITLE11=POW 369
TTITLE12=Second Wind
TTITLE13=Tennesse River Run
TTITLE14=The Way Things Are Ggoing In My Life
TTITLE15=Those Less Fortunate Than I
TTITLE16=Too Many Pockets
TTITLE17=When You Need My Love
TTITLE18=Who's Gonna Get Me Over You
EXTD=
EXTT0=
EXTT1=
EXTT2=
EXTT3=
EXTT4=
EXTT5=
EXTT6=
EXTT7=
EXTT8=
EXTT9=
EXTT10=
EXTT11=
EXTT12=
EXTT13=
EXTT14=
EXTT15=
EXTT16=
EXTT17=
EXTT18=
PLAYORDER=
